<svg width="106" height="21" viewBox="0 0 106 21" fill="none" xmlns="http://www.w3.org/2000/svg">
<path d="M0.89516 2.52836H6.97472V2.57586C6.11978 3.88202 5.8348 5.35441 5.97729 7.72924L6.49976 15.4237L10.632 6.54182C10.537 4.95069 10.2995 3.76328 9.61078 2.57586V2.52836H15.8328V2.57586C14.9066 3.88202 14.7404 5.30691 14.8354 7.70549L15.2866 15.4237L18.8964 7.82423C20.1313 5.23567 19.87 3.54954 19.0863 2.55211V2.50462H23.4085V2.55211C22.3161 3.3833 21.3662 5.02193 20.3925 7.11178L14.3129 19.9121H11.4631L10.7744 8.75041L5.54982 19.9121H2.70003L1.82134 7.18303C1.7026 5.25942 1.56011 3.90576 0.89516 2.57586V2.52836ZM23.9766 13.9038C23.9766 16.4686 25.0453 17.5135 26.494 17.5135C27.5151 17.5135 28.6551 17.0148 29.4862 15.6374L29.8187 15.7799C28.8925 18.8909 26.8502 20.2921 24.6178 20.2921C21.9343 20.2921 20.5094 18.2735 20.5094 15.3999C20.5094 10.959 24.0004 7.27802 28.0376 7.27802C29.6287 7.27802 31.0536 7.82423 31.0536 9.53411C31.0536 11.3627 29.2725 13.3101 23.9766 13.5476V13.9038ZM27.3251 8.18046C25.9002 8.18046 24.4041 10.1041 24.0479 12.7639C26.8977 12.2177 28.1801 10.9353 28.1801 9.32037C28.1801 8.41794 27.8239 8.18046 27.3251 8.18046ZM35.4274 19.9121H30.5827V19.8646C31.3664 18.7009 31.7227 17.4898 32.2926 14.925L34.05 6.9218C34.525 4.83195 34.62 3.50204 33.6225 2.10089V2.0534L38.9896 0.77099L35.8549 14.8775C35.2612 17.6085 35.1899 18.7009 35.4274 19.8646V19.9121ZM42.3153 19.9121H37.4707V19.8646C38.2544 18.7009 38.6106 17.4898 39.1805 14.925L40.9379 6.9218C41.4129 4.83195 41.5079 3.50204 40.5105 2.10089V2.0534L45.8776 0.77099L42.7428 14.8775C42.1491 17.6085 42.0778 18.7009 42.3153 19.8646V19.9121ZM44.4536 19.9121V19.8646C45.2135 18.4635 45.5698 17.1573 46.0685 14.925L46.5434 12.7401C46.9472 10.9828 46.8047 9.43912 45.8785 8.44169V8.39419L51.1981 7.13553L50.0344 12.5501C51.2931 9.86658 53.1455 7.27802 55.4965 7.27802C57.0877 7.27802 58.3463 8.51293 57.8001 11.2202L56.779 16.1599C56.3277 18.0597 56.399 18.9384 57.5389 19.7221V19.7696L52.243 20.1496L54.1429 11.529C54.3804 10.6028 54.2379 9.93783 53.5729 9.93783C52.3618 9.93783 50.8419 12.5739 49.4645 15.9224V15.9461C49.0845 17.6085 48.9658 18.7009 49.2033 19.8646V19.9121H44.4536ZM62.7995 13.9038C62.7995 16.4686 63.8682 17.5135 65.3168 17.5135C66.338 17.5135 67.4779 17.0148 68.3091 15.6374L68.6416 15.7799C67.7154 18.8909 65.6731 20.2921 63.4407 20.2921C60.7572 20.2921 59.3323 18.2735 59.3323 15.3999C59.3323 10.959 62.8233 7.27802 66.8605 7.27802C68.4516 7.27802 69.8765 7.82423 69.8765 9.53411C69.8765 11.3627 68.0954 13.3101 62.7995 13.5476V13.9038ZM66.148 8.18046C64.7231 8.18046 63.227 10.1041 62.8708 12.7639C65.7206 12.2177 67.003 10.9353 67.003 9.32037C67.003 8.41794 66.6467 8.18046 66.148 8.18046ZM78.9231 7.53925L79.0656 10.674L78.7806 10.7453C77.5932 8.84541 76.8095 8.18046 75.8358 8.18046C75.0047 8.18046 74.5059 8.65542 74.5059 9.41537C74.5059 11.5052 78.4482 11.8614 78.4482 15.8512C78.4482 18.8434 76.1921 20.2921 73.3423 20.2921C72.0599 20.2921 70.9437 20.0071 70.3025 19.6984L70.16 15.8274L70.445 15.7799C71.6561 18.1547 72.8911 19.3659 74.126 19.3659C74.9334 19.3659 75.5034 18.8672 75.5034 17.9885C75.5034 15.6137 71.4899 14.8537 71.4899 11.2915C71.4899 8.79791 73.3898 7.27802 76.5958 7.27802C77.3557 7.27802 78.3057 7.37301 78.9231 7.53925ZM88.4085 7.53925L88.551 10.674L88.266 10.7453C87.0786 8.84541 86.2949 8.18046 85.3212 8.18046C84.49 8.18046 83.9913 8.65542 83.9913 9.41537C83.9913 11.5052 87.9335 11.8614 87.9335 15.8512C87.9335 18.8434 85.6775 20.2921 82.8277 20.2921C81.5453 20.2921 80.4291 20.0071 79.7879 19.6984L79.6454 15.8274L79.9304 15.7799C81.1415 18.1547 82.3765 19.3659 83.6114 19.3659C84.4188 19.3659 84.9888 18.8672 84.9888 17.9885C84.9888 15.6137 80.9753 14.8537 80.9753 11.2915C80.9753 8.79791 82.8752 7.27802 86.0812 7.27802C86.8411 7.27802 87.7911 7.37301 88.4085 7.53925Z" fill="black"/>
<path d="M88.864 19.9121V19.5084L100.287 3.45455L97.9358 3.57329C95.9647 3.66828 93.6137 6.25684 92.3787 7.77673L91.88 7.563L93.7561 2.52836H105.132V2.93208L93.7086 18.9859L96.4635 18.8672C98.4108 18.7959 101.047 15.7087 102.329 13.975L102.828 14.1888L100.928 19.9121H88.864Z" fill="#67BC2A"/>
</svg>
